# xmcd
#
# Track frame offsets:
#	150
#	18352
#	42632
#	54261
#	71027
#	84159
#	100010
#	110101
#	128632
#	153578
#	162986
#	181427
#	201081
#
# Disc length: 3008 seconds
#
# Revision: 1
# Processed by: cddbd v1.5.2PL0 Copyright (c) Steve Scherf et al.
# Submitted via: audiograbber 1.83.01
#
DISCID=ab0bbe0d
DTITLE=Morcheeba - Dive Deep
DYEAR=2008
DGENRE=Down-Tempo
TTITLE0=Enjoy the Ride (ft Judy Tzuke)
TTITLE1=Riverbed (ft Thomas Dybdahl)
TTITLE2=Thumbnails
TTITLE3=Run Honey Run (ft Bradley)
TTITLE4=Gained the World (ft Manda)
TTITLE5=One Love Karma
TTITLE6=Au Dela (ft Manda)
TTITLE7=Blue Chair (ft Judy Tzuke)
TTITLE8=Sleep On It (ft Thomas Dybdahl)
TTITLE9=Hemphasis
TTITLE10=Flowers (ft Manda)
TTITLE11=Washed Away (ft Thomas Dybdahl)
TTITLE12=The Edge Beyond The Edge
EXTD=
EXTT0=
EXTT1=
EXTT2=
EXTT3=
EXTT4=
EXTT5=
EXTT6=
EXTT7=
EXTT8=
EXTT9=
EXTT10=
EXTT11=
EXTT12=
PLAYORDER=
